<svg id="Layer_1" data-name="Layer 1" xmlns="http://www.w3.org/2000/svg" viewBox="0 0 78.79 46.28"><defs><style>.cls-1{fill:#fad950;}.cls-2{fill:#ec94eb;}.cls-3{fill:#0f49e5;}.cls-4{fill:#6ed0e3;}</style></defs><title>service-icons</title><rect class="cls-1" y="4.41" width="46.79" height="41.86"/><polygon class="cls-2" points="13.29 25.35 2.02 44.87 24.56 44.87 13.29 25.35"/><polygon class="cls-2" points="34.73 25.35 23.46 44.87 46 44.87 34.73 25.35"/><polygon class="cls-3" points="24.55 35.09 18.91 44.87 30.2 44.87 24.55 35.09"/><circle class="cls-4" cx="8.75" cy="6.71" r="6.71"/><rect class="cls-1" x="50" y="20.52" width="28.79" height="25.76"/><polygon class="cls-2" points="58.17 33.4 51.24 45.41 65.11 45.41 58.17 33.4"/><polygon class="cls-2" points="71.37 33.4 64.44 45.41 78.31 45.41 71.37 33.4"/><polygon class="cls-3" points="65.11 39.4 61.64 45.41 68.58 45.41 65.11 39.4"/><circle class="cls-4" cx="55.39" cy="21.93" r="4.13"/><rect class="cls-1" x="50" y="5.15" width="12.13" height="10.86"/><polygon class="cls-2" points="53.45 10.57 50.52 15.64 56.37 15.64 53.45 10.57"/><polygon class="cls-2" points="59.01 10.57 56.08 15.64 61.93 15.64 59.01 10.57"/><polygon class="cls-3" points="56.37 13.1 54.9 15.64 57.83 15.64 56.37 13.1"/><circle class="cls-4" cx="52.27" cy="5.74" r="1.74"/></svg>