<svg xmlns="http://www.w3.org/2000/svg" width="117.7" height="77" viewBox="0 0 117.7 77">
  <g id="Group_75" data-name="Group 75" transform="translate(-942 -2032)">
    <rect id="Rectangle_451" data-name="Rectangle 451" width="98" height="61" transform="translate(942 2032)" fill="#6ed0e3"/>
    <g id="Rectangle_457" data-name="Rectangle 457" transform="translate(945 2035)" fill="#383737" stroke="#fff" stroke-width="1">
      <rect width="91" height="55" stroke="none"/>
      <rect x="0.5" y="0.5" width="90" height="54" fill="none"/>
    </g>
    <path id="Path_86" data-name="Path 86" d="M27.526,0h0L55.648,35.7H0Z" transform="translate(998.214 2090.011) rotate(-164)" fill="#704bd9"/>
    <ellipse id="Ellipse_50" data-name="Ellipse 50" cx="10" cy="10.5" rx="10" ry="10.5" transform="translate(984 2053)" fill="#fab2b2"/>
    <rect id="Rectangle_452" data-name="Rectangle 452" width="13.152" height="13.152" transform="translate(1010.896 2049.922) rotate(-45)" fill="#6ed0e3"/>
    <rect id="Rectangle_453" data-name="Rectangle 453" width="22" height="10" transform="translate(981 2094)" fill="#6ed0e3"/>
    <rect id="Rectangle_458" data-name="Rectangle 458" width="38" height="4" transform="translate(973 2105)" fill="#6ed0e3"/>
    <g id="Union_13" data-name="Union 13" transform="matrix(0.875, -0.485, 0.485, 0.875, 1018.972, 2088.809)" fill="#383737">
      <path d="M 28.56543731689453 23.20035743713379 L 23.34475135803223 17.82209014892578 L 23.00378227233887 17.4708309173584 L 22.6453914642334 17.80429077148438 L 18.99954795837402 21.19646072387695 L 12.29488468170166 0.9144068360328674 L 31.59975051879883 9.472956657409668 L 27.62991142272949 13.16658115386963 L 27.25602149963379 13.5144510269165 L 27.61173248291016 13.88090038299561 L 32.61196136474609 19.03205490112305 L 28.56543731689453 23.20035743713379 Z" stroke="none"/>
      <path d="M 28.56545257568359 22.48251533508301 L 31.91512107849121 19.03204154968262 L 27.25296211242676 14.22916030883789 L 26.54155158996582 13.49627113342285 L 27.28932189941406 12.80052089691162 L 30.70447731018066 9.622986793518066 L 13.1237850189209 1.828826308250427 L 19.22963714599609 20.29942893981934 L 22.30480194091797 17.43823051452637 L 23.02159118652344 16.77132034301758 L 23.70352172851562 17.47383117675781 L 28.56545257568359 22.48251533508301 M 28.56542205810547 23.9182014465332 L 22.98598098754883 18.17035102844238 L 18.76947212219238 22.09348106384277 L 11.46600151062012 7.232666234813223e-07 L 32.49502182006836 9.322930335998535 L 27.97050094604492 13.53264045715332 L 33.30879974365234 19.03207015991211 L 28.56542205810547 23.9182014465332 Z" stroke="none" fill="#fff"/>
    </g>
  </g>
</svg>
